<?xml version="1.0" standalone="no"?>
<!DOCTYPE svg PUBLIC "-//W3C//DTD SVG 20010904//EN"
 "http://www.w3.org/TR/2001/REC-SVG-20010904/DTD/svg10.dtd">
<svg version="1.0" xmlns="http://www.w3.org/2000/svg"
 width="428.000000pt" height="307.000000pt" viewBox="0 0 428.000000 307.000000"
 preserveAspectRatio="xMidYMid meet">

<g transform="translate(0.000000,307.000000) scale(0.100000,-0.100000)"
fill="#000000" stroke="none">
<path d="M1265 3059 c-441 -42 -776 -204 -982 -477 -189 -250 -283 -598 -283
-1047 0 -949 417 -1446 1280 -1524 153 -14 1567 -14 1720 0 863 78 1280 575
1280 1524 0 591 -161 1005 -488 1252 -200 151 -467 243 -792 272 -137 13
-1601 12 -1735 0z m1274 -869 c201 -105 376 -202 389 -216 22 -25 22 -28 22
-332 0 -227 -4 -314 -13 -332 -9 -19 -107 -75 -377 -217 -201 -106 -380 -195
-398 -199 -28 -5 -75 16 -400 186 -202 105 -377 203 -389 216 -23 25 -23 27
-23 343 l0 318 25 23 c35 33 745 400 774 400 13 0 188 -86 390 -190z m-1263
-867 c-2 -3 -126 66 -275 153 -150 86 -269 159 -266 163 4 3 127 76 273 161
l267 156 3 -315 c1 -173 0 -316 -2 -318z m2043 465 c134 -79 244 -147 243
-153 -1 -10 -519 -315 -534 -315 -5 0 -8 144 -8 320 l0 321 28 -15 c15 -9 137
-80 271 -158z m-1434 -1302 c61 -26 93 -113 62 -171 -13 -25 -13 -33 0 -63 9
-21 13 -60 11 -105 l-3 -72 -40 0 -40 0 -3 72 c-2 42 -8 76 -16 82 -7 6 -66
12 -132 13 l-119 3 -3 114 c-1 63 0 121 2 128 8 19 234 18 281 -1z m310 -201
l0 -210 -40 0 -40 0 -3 200 c-1 110 0 205 3 213 3 9 18 12 42 10 l38 -3 0
-210z m439 201 c18 -7 42 -26 54 -41 20 -25 22 -39 22 -161 l0 -134 -34 -37
c-33 -36 -34 -37 -122 -40 -72 -3 -96 -1 -123 14 -40 21 -68 57 -73 93 -3 23
1 25 40 28 37 3 44 0 49 -17 7 -26 32 -33 108 -29 l60 3 0 120 0 120 -60 3
c-102 5 -104 4 -107 -86 l-3 -77 -45 0 -45 0 0 82 c1 94 16 125 76 155 42 22
155 24 203 4z m-946 -343 l-3 -68 -40 0 -40 0 -3 68 -3 67 46 0 46 0 -3 -67z"/>
<path d="M2029 2307 c-57 -30 -223 -116 -369 -192 -146 -76 -271 -145 -277
-153 -10 -12 -13 -93 -13 -327 0 -287 1 -313 18 -328 27 -24 721 -387 751
-393 20 -4 112 40 391 186 201 105 373 201 383 212 15 18 17 49 17 323 0 274
-2 305 -17 324 -19 24 -711 388 -754 397 -18 4 -54 -9 -130 -49z m455 -217
c171 -89 319 -170 329 -181 15 -19 17 -48 17 -274 0 -226 -2 -255 -17 -273
-24 -27 -635 -342 -663 -342 -24 0 -642 314 -666 338 -11 11 -14 67 -14 275 0
144 4 268 9 275 13 20 642 342 670 342 13 0 163 -72 335 -160z"/>
<path d="M1934 1917 c-2 -7 -3 -87 -2 -177 l3 -165 165 -5 165 -5 3 -85 c3
-133 2 -132 70 -128 l57 3 3 108 c2 83 -1 115 -13 141 -15 32 -15 37 0 67 23
43 17 139 -11 176 -53 70 -96 82 -292 83 -107 0 -144 -3 -148 -13z m334 -169
c3 -35 1 -37 -30 -43 -18 -3 -67 -5 -108 -3 l-75 3 -3 43 -3 43 108 -3 108 -3
3 -37z"/>
<path d="M1932 1453 l3 -98 55 0 55 0 3 98 3 97 -61 0 -61 0 3 -97z"/>
<path d="M1697 404 c-4 -4 -7 -20 -7 -35 0 -35 20 -41 104 -37 66 3 90 23 70
56 -9 13 -28 18 -86 20 -40 1 -77 0 -81 -4z"/>
</g>
</svg>
